<svg width="21" height="16" viewBox="0 0 21 16" fill="none" xmlns="http://www.w3.org/2000/svg">
<g filter="url(#filter0_d_8_3)">
<path d="M6.808 7.144C6.552 7.144 6.292 7.136 6.028 7.12C5.764 7.112 5.504 7.092 5.248 7.06C4.68 7.012 4.396 6.828 4.396 6.508C4.396 6.348 4.46 6.156 4.588 5.932C4.892 5.38 5.204 4.832 5.524 4.288C5.844 3.736 6.16 3.184 6.472 2.632C6.568 2.456 6.692 2.236 6.844 1.972C6.996 1.708 7.148 1.456 7.3 1.216C7.372 1.104 7.476 0.992 7.612 0.879999C7.748 0.76 7.888 0.684 8.032 0.651999C7.864 0.66 7.648 0.672 7.384 0.688C7.128 0.704 6.864 0.736 6.592 0.784C6.328 0.824 6.088 0.892 5.872 0.987999C5.664 1.076 5.516 1.2 5.428 1.36C5.396 1.432 5.368 1.504 5.344 1.576C5.32 1.648 5.308 1.72 5.308 1.792C5.308 1.976 5.372 2.108 5.5 2.188C5.508 2.188 5.512 2.196 5.512 2.212C5.512 2.228 5.496 2.244 5.464 2.26C5.44 2.276 5.416 2.28 5.392 2.272C5.32 2.232 5.232 2.136 5.128 1.984C5.024 1.824 4.96 1.692 4.936 1.588C4.912 1.492 4.9 1.404 4.9 1.324C4.9 1.116 4.968 0.956 5.104 0.844C5.24 0.724 5.412 0.64 5.62 0.592C5.828 0.536 6.04 0.504 6.256 0.495999C6.472 0.48 6.664 0.472 6.832 0.472C7.256 0.472 7.68 0.468 8.104 0.46C8.528 0.444 8.948 0.435999 9.364 0.435999C9.548 0.435999 9.728 0.435999 9.904 0.435999C10.088 0.435999 10.268 0.444 10.444 0.46C10.644 0.468 10.78 0.508 10.852 0.58C10.932 0.652 10.972 0.74 10.972 0.844C10.972 0.972 10.928 1.12 10.84 1.288C10.76 1.448 10.684 1.596 10.612 1.732C10.58 1.796 10.528 1.844 10.456 1.876C10.384 1.9 10.356 1.876 10.372 1.804C10.412 1.644 10.432 1.484 10.432 1.324C10.432 1.18 10.404 1.052 10.348 0.94C10.3 0.82 10.204 0.736 10.06 0.688C9.924 0.648 9.712 0.628 9.424 0.628C9.32 0.628 9.212 0.632 9.1 0.64C8.996 0.64 8.888 0.644 8.776 0.651999C8.456 0.676 8.24 0.76 8.128 0.904C7.864 1.272 7.608 1.672 7.36 2.104C7.12 2.528 6.888 2.932 6.664 3.316C6.656 3.332 6.652 3.352 6.652 3.376C6.652 3.424 6.688 3.448 6.76 3.448C7.04 3.448 7.34 3.452 7.66 3.46C7.988 3.468 8.276 3.468 8.524 3.46C8.58 3.452 8.664 3.444 8.776 3.436C8.896 3.428 9.016 3.412 9.136 3.388C9.264 3.364 9.36 3.336 9.424 3.304C9.464 3.28 9.488 3.268 9.496 3.268C9.544 3.268 9.544 3.316 9.496 3.412C9.456 3.5 9.384 3.592 9.28 3.688C9.184 3.776 9.072 3.82 8.944 3.82C8.552 3.82 8.22 3.812 7.948 3.796C7.684 3.78 7.388 3.772 7.06 3.772C6.98 3.772 6.896 3.772 6.808 3.772C6.72 3.772 6.624 3.776 6.52 3.784C6.44 3.792 6.384 3.824 6.352 3.88C6.272 4.024 6.2 4.156 6.136 4.276C6.08 4.396 6.008 4.536 5.92 4.696C5.856 4.816 5.776 4.972 5.68 5.164C5.592 5.348 5.512 5.54 5.44 5.74C5.368 5.932 5.332 6.1 5.332 6.244C5.332 6.492 5.448 6.664 5.68 6.76C5.912 6.848 6.196 6.896 6.532 6.904C6.996 6.904 7.452 6.86 7.9 6.772C8.356 6.676 8.78 6.52 9.172 6.304C9.572 6.08 9.92 5.78 10.216 5.404C10.232 5.388 10.244 5.38 10.252 5.38C10.276 5.38 10.292 5.404 10.3 5.452C10.308 5.492 10.304 5.524 10.288 5.548C10.04 5.852 9.8 6.148 9.568 6.436C9.336 6.716 9.104 6.892 8.872 6.964C8.704 7.012 8.432 7.052 8.056 7.084C7.68 7.124 7.264 7.144 6.808 7.144ZM12.3825 7.408C12.1025 7.408 11.8065 7.364 11.4945 7.276C11.1905 7.196 10.9185 7.06 10.6785 6.868C10.4465 6.676 10.2905 6.42 10.2105 6.1C10.2025 6.06 10.1945 6.016 10.1865 5.968C10.1865 5.92 10.1865 5.872 10.1865 5.824C10.1865 5.576 10.2425 5.336 10.3545 5.104C10.4665 4.872 10.6025 4.696 10.7625 4.576H10.7745C10.7905 4.576 10.8105 4.596 10.8345 4.636C10.8665 4.668 10.8665 4.692 10.8345 4.708C10.7545 4.788 10.6945 4.88 10.6545 4.984C10.6225 5.08 10.6065 5.184 10.6065 5.296C10.6065 5.448 10.6305 5.604 10.6785 5.764C10.7345 5.916 10.8025 6.048 10.8825 6.16C11.0825 6.44 11.3585 6.664 11.7105 6.832C12.0705 6.992 12.4225 7.072 12.7665 7.072C13.2385 7.072 13.6025 6.932 13.8585 6.652C14.1225 6.372 14.2545 6.028 14.2545 5.62C14.2545 5.372 14.2065 5.124 14.1105 4.876C13.9825 4.532 13.8105 4.196 13.5945 3.868C13.3865 3.532 13.1945 3.204 13.0185 2.884C12.8665 2.596 12.7905 2.304 12.7905 2.008C12.7905 1.696 12.8865 1.396 13.0785 1.108C13.2705 0.852 13.5225 0.648 13.8345 0.495999C14.1545 0.335999 14.4785 0.256 14.8065 0.256C15.0305 0.256 15.2465 0.296 15.4545 0.375999C15.6625 0.455999 15.8505 0.587999 16.0185 0.771999C16.0665 0.843999 16.0905 0.936 16.0905 1.048C16.0905 1.208 16.0585 1.332 15.9945 1.42C15.9225 1.524 15.8425 1.66 15.7545 1.828C15.6665 1.996 15.6145 2.112 15.5985 2.176C15.5825 2.184 15.5425 2.2 15.4785 2.224C15.4225 2.24 15.3865 2.236 15.3705 2.212C15.4025 2.148 15.4465 2.032 15.5025 1.864C15.5585 1.696 15.5865 1.544 15.5865 1.408C15.5865 1.32 15.5825 1.224 15.5745 1.12C15.5745 1.008 15.5225 0.912 15.4185 0.832C15.3225 0.744 15.1985 0.668 15.0465 0.603999C14.8945 0.54 14.7105 0.508 14.4945 0.508C14.0545 0.508 13.7185 0.636 13.4865 0.892C13.2545 1.148 13.1385 1.428 13.1385 1.732C13.1385 1.884 13.1705 2.036 13.2345 2.188C13.3545 2.476 13.5225 2.748 13.7385 3.004C13.9545 3.26 14.1665 3.524 14.3745 3.796C14.5905 4.06 14.7585 4.348 14.8785 4.66C14.9585 4.868 14.9985 5.08 14.9985 5.296C14.9985 5.608 14.9185 5.892 14.7585 6.148C14.6065 6.404 14.3985 6.628 14.1345 6.82C13.8785 7.004 13.5985 7.148 13.2945 7.252C12.9905 7.356 12.6865 7.408 12.3825 7.408Z" fill="white"/>
</g>
<defs>
<filter id="filter0_d_8_3" x="0.395996" y="0.256012" width="19.6945" height="15.152" filterUnits="userSpaceOnUse" color-interpolation-filters="sRGB">
<feFlood flood-opacity="0" result="BackgroundImageFix"/>
<feColorMatrix in="SourceAlpha" type="matrix" values="0 0 0 0 0 0 0 0 0 0 0 0 0 0 0 0 0 0 127 0" result="hardAlpha"/>
<feOffset dy="4"/>
<feGaussianBlur stdDeviation="2"/>
<feComposite in2="hardAlpha" operator="out"/>
<feColorMatrix type="matrix" values="0 0 0 0 0 0 0 0 0 0 0 0 0 0 0 0 0 0 0.25 0"/>
<feBlend mode="normal" in2="BackgroundImageFix" result="effect1_dropShadow_8_3"/>
<feBlend mode="normal" in="SourceGraphic" in2="effect1_dropShadow_8_3" result="shape"/>
</filter>
</defs>
</svg>
