<svg width="105" height="52" viewBox="0 0 105 52" fill="none" xmlns="http://www.w3.org/2000/svg">
<path d="M30.224 26.376C30.096 26.376 29.9467 26.376 29.776 26.376C29.648 26.376 29.52 26.376 29.392 26.376C29.3067 26.376 29.1787 26.376 29.008 26.376C28.8373 26.376 28.688 26.376 28.56 26.376C28.4747 26.376 28.3467 26.376 28.176 26.376C28.048 26.3333 27.9413 26.312 27.856 26.312C27.7707 26.2693 27.664 26.2267 27.536 26.184C27.4507 26.1413 27.3653 26.0987 27.28 26.056C27.2373 25.9707 27.1947 25.8853 27.152 25.8C27.1093 25.7147 27.088 25.608 27.088 25.48C27.088 25.1387 27.2373 24.7973 27.536 24.456C27.8347 24.072 28.1547 23.88 28.496 23.88C28.88 23.88 29.2853 23.88 29.712 23.88C30.3093 23.88 31.184 23.9013 32.336 23.944C33.5307 23.944 34.384 23.944 34.896 23.944C35.408 22.4933 36.1547 20.296 37.136 17.352C38.1173 14.3653 38.864 12.1253 39.376 10.632C28.4533 7.432 20.1547 5.832 14.48 5.832C13.2427 5.832 12.0267 5.91733 10.832 6.088C9.63733 6.25866 8.35733 6.57866 6.992 7.048C5.66933 7.47467 4.58133 8.15733 3.728 9.096C2.91733 9.992 2.512 11.1013 2.512 12.424C2.512 14.4293 3.408 16.4987 5.2 18.632C7.03467 20.7653 9.04 22.5573 11.216 24.008C13.392 25.416 15.376 26.7387 17.168 27.976C19.0027 29.2133 19.92 30.024 19.92 30.408C19.92 30.536 19.8347 30.6 19.664 30.6C18.9813 30.6 17.6373 30.0667 15.632 29C13.6693 27.976 11.8347 26.8667 10.128 25.672C8.464 24.4347 6.864 23.0267 5.328 21.448C3.792 19.8693 2.59733 18.0987 1.744 16.136C0.848 14.1307 0.4 12.0613 0.4 9.928C0.4 5.192 4.06933 2.824 11.408 2.824C18.704 2.824 28.2187 4.872 39.952 8.968C39.9947 8.79733 40.08 8.456 40.208 7.944C40.3787 7.432 40.528 7.00533 40.656 6.664C40.784 6.32266 40.9547 5.93866 41.168 5.512C41.3813 5.08533 41.6373 4.76533 41.936 4.552C42.2347 4.33867 42.5547 4.232 42.896 4.232C43.7067 4.232 44.4533 4.65866 45.136 5.512C45.8187 6.36533 46.16 7.19733 46.16 8.008C46.16 8.43467 46.032 8.648 45.776 8.648C45.4773 8.648 45.0933 8.456 44.624 8.072C44.1547 7.688 43.8773 7.496 43.792 7.496C43.4507 7.496 43.1307 7.77333 42.832 8.328C42.5333 8.88267 42.3413 9.37333 42.256 9.8C47.376 11.5493 52.5813 12.424 57.872 12.424C58.768 12.424 59.6 12.3173 60.368 12.104C61.136 11.8907 61.7333 11.6773 62.16 11.464C62.5867 11.2507 62.8427 11.144 62.928 11.144C63.4827 11.144 63.76 11.336 63.76 11.72C63.76 12.7867 62.9493 13.5547 61.328 14.024C59.7067 14.4933 58.2133 14.728 56.848 14.728C54.672 14.728 52.0907 14.4293 49.104 13.832C46.16 13.2347 43.7067 12.488 41.744 11.592C41.5307 12.2747 40.8907 14.1093 39.824 17.096C38.7573 20.04 37.968 22.3227 37.456 23.944C37.7547 23.944 39.376 23.9867 42.32 24.072C45.264 24.1147 47.2693 24.136 48.336 24.136C49.104 24.136 49.7227 24.2427 50.192 24.456C50.704 24.6267 50.96 24.84 50.96 25.096C50.96 25.5653 50.2133 25.8 48.72 25.8C47.4827 25.8 45.2213 25.864 41.936 25.992C38.6507 26.12 36.9227 26.184 36.752 26.184C35.984 28.9573 34.8107 32.008 33.232 35.336C31.6533 38.6213 30.032 41.1813 28.368 43.016C37.072 47.24 44.2827 49.352 50 49.352C52.176 49.352 54.16 48.7333 55.952 47.496C57.744 46.3013 58.64 44.6587 58.64 42.568C58.64 41.5867 58.2987 40.6053 57.616 39.624C56.9333 38.6 56.592 37.96 56.592 37.704C56.592 36.8507 56.9333 36.424 57.616 36.424C58.2133 36.424 58.7893 36.9787 59.344 38.088C59.9413 39.1973 60.24 40.5413 60.24 42.12C60.24 45.1493 59.0453 47.496 56.656 49.16C54.3093 50.8667 51.5573 51.72 48.4 51.72C46.3093 51.72 43.856 51.3147 41.04 50.504C38.2667 49.6933 36.1333 48.968 34.64 48.328C33.1467 47.688 30.8 46.6213 27.6 45.128C27.0453 44.872 26.6187 44.68 26.32 44.552C22.5653 48.0507 17.8933 49.8 12.304 49.8C10.1707 49.8 8.272 49.3947 6.608 48.584C4.944 47.7733 4.112 46.3867 4.112 44.424C4.112 42.4613 4.88 40.8827 6.416 39.688C7.952 38.4507 9.744 37.832 11.792 37.832C15.3333 37.832 20.2187 39.2613 26.448 42.12C28.5387 39.3893 31.12 34.12 34.192 26.312C33.9787 26.312 33.4027 26.3333 32.464 26.376C31.5253 26.376 30.7787 26.376 30.224 26.376ZM24.976 43.848C23.1413 42.9947 20.7307 42.2053 17.744 41.48C14.8 40.7547 12.4107 40.392 10.576 40.392C7.71733 40.392 6.288 41.2667 6.288 43.016C6.288 44.0827 6.864 45.0213 8.016 45.832C9.168 46.6853 10.4053 47.2613 11.728 47.56C13.0507 47.9013 14.2453 48.072 15.312 48.072C18.9387 48.072 22.16 46.664 24.976 43.848ZM71.8605 48.456C73.8658 48.456 75.9352 48.2213 78.0685 47.752C80.2445 47.2827 82.1645 46.5147 83.8285 45.448C85.5352 44.3813 86.3885 43.1653 86.3885 41.8C86.3885 41.5867 86.3672 41.3947 86.3245 41.224C86.1112 39.816 85.0872 38.6427 83.2525 37.704C81.4178 36.7653 79.2845 35.976 76.8525 35.336C74.4632 34.6533 72.0738 33.9067 69.6845 33.096C67.3378 32.2853 65.3325 31.0693 63.6685 29.448C62.0472 27.8267 61.2365 25.8 61.2365 23.368C61.2365 20.2533 62.0898 17.3733 63.7965 14.728C65.5458 12.04 67.7858 9.82133 70.5165 8.072C73.2898 6.28 76.2125 4.808 79.2845 3.656C82.3992 2.504 85.5138 1.736 88.6285 1.352C90.4632 1.096 92.1912 0.967999 93.8125 0.967999C101.109 0.967999 104.757 3.37866 104.757 8.2C104.757 10.7173 103.562 13.1493 101.173 15.496C98.7832 17.8427 95.9885 19.016 92.7885 19.016C92.4898 19.016 92.2552 18.9733 92.0845 18.888C91.9565 18.76 91.8925 18.632 91.8925 18.504C91.8925 18.4187 91.9138 18.3333 91.9565 18.248C91.9992 18.12 92.0632 18.0347 92.1485 17.992C92.2765 17.9067 92.4045 17.8427 92.5325 17.8C92.6605 17.7573 92.8098 17.736 92.9805 17.736C95.1565 17.736 97.2258 16.9253 99.1885 15.304C101.151 13.64 102.133 11.592 102.133 9.16C102.133 7.92266 101.855 6.87733 101.301 6.024C100.789 5.128 100.063 4.44533 99.1245 3.976C98.1858 3.464 97.1618 3.10133 96.0525 2.888C94.9858 2.67466 93.8125 2.568 92.5325 2.568C91.8925 2.568 91.2525 2.58933 90.6125 2.632C90.0152 2.67466 89.4178 2.73867 88.8205 2.824C84.7672 3.336 80.9485 4.38133 77.3645 5.96C73.8232 7.496 70.8365 9.672 68.4045 12.488C65.9725 15.2613 64.7565 18.3547 64.7565 21.768C64.7565 23.816 65.3325 25.5867 66.4845 27.08C67.6365 28.5307 69.0658 29.5973 70.7725 30.28C72.5218 30.9627 74.4205 31.624 76.4685 32.264C78.5165 32.904 80.4365 33.4373 82.2285 33.864C84.0632 34.2907 85.6418 34.952 86.9645 35.848C88.2872 36.744 89.0552 37.832 89.2685 39.112L89.3325 39.88C89.3325 41.6293 88.3725 43.336 86.4525 45C84.5752 46.664 82.1005 48.008 79.0285 49.032C75.9565 50.0987 72.7992 50.632 69.5565 50.632C65.2045 50.632 63.0285 49.0533 63.0285 45.896C63.0285 44.1893 63.6045 43.336 64.7565 43.336C64.8845 43.336 64.9912 43.4853 65.0765 43.784C65.1618 44.04 65.2685 44.4027 65.3965 44.872C65.5245 45.2987 65.6738 45.6613 65.8445 45.96C66.1432 46.472 66.4845 46.8987 66.8685 47.24C67.2952 47.5813 67.7645 47.8373 68.2765 48.008C68.7885 48.1787 69.3218 48.2853 69.8765 48.328C70.4738 48.4133 71.1352 48.456 71.8605 48.456Z" fill="white"/>
</svg>
